<svg xmlns="http://www.w3.org/2000/svg" xmlns:xlink="http://www.w3.org/1999/xlink" width="298" height="316"><style><![CDATA[.B{fill-rule:nonzero}.C{fill:#fff}.D{fill:#24192c}.E{fill:#1c1c1c}.F{fill:#382b44}.G{fill:#d3def8}.H{fill:#6c4d6b}.I{stroke-linecap:round}.J{stroke-linejoin:round}.K{opacity:.63}.L{fill:#845778}.M{stroke:#fff}.N{fill:#e9e1f0}.O{fill:#474c59}.P{fill:#ca94bb}.Q{fill:#f14284}.R{stroke-opacity:.14}]]></style><defs><path d="M0 0h3.288v34.28a1.64 1.64 0 0 1-1.644 1.636A1.64 1.64 0 0 1 0 34.279V0z" id="A"/><path d="M0 0h3.288v34.28a1.64 1.64 0 0 1-1.644 1.636A1.64 1.64 0 0 1 0 34.279V0z" id="B"/><path d="M0 0h3.288v34.28a1.64 1.64 0 0 1-1.644 1.636A1.64 1.64 0 0 1 0 34.279V0z" id="C"/><path d="M0 0h7.917v55.694a3.95 3.95 0 0 1-3.958 3.939A3.95 3.95 0 0 1 0 55.694V0z" id="D"/><path d="M0 .328h7.917v54.055a3.95 3.95 0 0 1-3.958 3.939A3.95 3.95 0 0 1 0 54.383V.328z" id="E"/><path d="M0 0h5.278v57.006c0 1.45-1.18 2.626-2.64 2.626S0 58.457 0 57.006V0z" id="F"/><path d="M0 0h5.278v57.006c0 1.45-1.18 2.626-2.64 2.626S0 58.457 0 57.006V0z" id="G"/><linearGradient x1="59.5624491%" y1="38.7747031%" x2="4.9719453%" y2="36.1765309%" id="H"><stop stop-color="#3a5bff" offset="0%"/><stop stop-color="#d6e2fc" offset="100%"/></linearGradient><path id="I" d="M42.552 9.195C60.85 43.62 76.424 68.447 89.276 83.672c7.23 8.565 34.994 14.645 52.564 21.44 9.33 3.61 6.294 8.57 16.687 11.68l11.68 3.337c5.203-5.695 9.93-9.03 14.184-10.01 27.145-6.25 52.48-8.646 63.41-19.1C261.3 78.13 277.987 47.788 297.863 0"/><path id="J" d="M155.333 163.454h27.74c3.28 0 5.937 2.645 5.937 5.908v29.874h-39.614v-29.874c0-3.263 2.658-5.908 5.937-5.908z"/><path id="K" d="M0 0h3.288v34.28a1.64 1.64 0 0 1-1.644 1.636A1.64 1.64 0 0 1 0 34.279V0z"/><path id="L" d="M2.055 0h3.288v35.914H2.055z"/><path id="M" d="M5.023 57.645c-.28.24-2.955 2.34-3.25 3.804s6.5-.293 7.682-.585.295-4.097 0-4.097-.675 1.1-1.477 1.17c-.236.02-1.66-.177-2.068-.293-.455-.128-.607-.24-.886 0z"/><path id="N" d="M0 0h7.917v55.694a3.95 3.95 0 0 1-3.958 3.939A3.95 3.95 0 0 1 0 55.694V0z"/><path id="O" d="M0 .328h7.917v54.055a3.95 3.95 0 0 1-3.958 3.939A3.95 3.95 0 0 1 0 54.383V.328z"/><path id="P" d="M0 0h5.278v57.006c0 1.45-1.18 2.626-2.64 2.626S0 58.457 0 57.006V0z"/><path id="Q" d="M12.638 221.532c-4.004 2.2-8.132 3.302-12.384 3.308l4.577 5.948c4.7-.007 9.207-1.15 13.516-3.432l-5.71-5.825z"/><path id="R" d="M208.106 173.453c.165-.083.634-.867-.094-2.29s-.295-3.04-.46-2.956-1.084 1.778-.356 3.2.745 2.13.9 2.045z"/></defs><g fill="none" fill-rule="evenodd"><g class="B"><g opacity=".568"><use xlink:href="#I" fill="#d8d8d8" fill-opacity=".073"/><use xlink:href="#I" opacity=".163" fill="#000" fill-opacity=".08"/></g><use xlink:href="#J" fill="#291935"/><use xlink:href="#J" x="-1.949" y="0.651" fill="#33283d"/><ellipse fill="#dfd7e7" transform="matrix(-1 0 0 1 213.099402 120.129)" cx="38.269" cy="13.641" rx="1.44" ry="1.974"/><path d="M164.51 141.277c-4.097-2.422-5.273-6.68-3.528-12.77 2.638-9.2 14.177-2.16 14.177 3.29 0 2.81-.502 7.075-4.39 9.407-.155 1.708-.382 3.463.103 5.395.66 2.63-7.253 3.29-6.594.987.515-1.798.226-3.796.23-6.307z" class="N"/><g fill="#dfd7e7"><ellipse cx="160.324" cy="133.77" rx="1.44" ry="1.974"/><path d="M155.7 141.184l1.984-1.31c.453-.828 1.115-1.596 1.985-2.304 1.305-1.062 4.007-1.162 3.303.325s-2.024 2.802-2.316 2.957c-.195.103-1.222.98-3.083 2.63l-1.873-2.295z"/></g><path d="M160.62 140.86l.09-.034c1.63-.628 2.32-1.118 2.07-1.47-.253-.36-.983-.252-2.19.32l.03 1.185z" fill="#d2c5dd"/><path d="M158.676 145.282c1.65-.343 5.427-.246 8.283-.315 6.975-.168 13.147 1.63 17.104 9.525 1.242 2.478-.85 11.36-1.32 16.118-.605 6.12-1.896 9.044-2.638 13.486-.82 4.915-1.134 11.206-3.627 13.486-7.913 7.236-14.07-.092-19.452-.987-9.392-1.562-4.624-8.1-3.928-25 .153-3.723-.724-10.418-.484-16.407-6.112-1.96-13.32 2.246-15.217-3.43-1.978-5.92 17.627-11.13 19.605-12.117s3.627 2.303 2.967 2.96c-.44.44-5.436 2.614-15 6.525 6.712-3.003 11.277-4.285 13.694-3.846z" fill="#6c2cb4"/><path d="M163.418 143.31h8.32c.22 0 .396.176.396.394a.39.39 0 0 1-.004.056l-.265 1.853h-8.572l-.265-1.853c-.03-.215.12-.415.336-.445.018-.003.037-.004.056-.004z" fill="#502e76"/><path d="M173.842 129.165c.905.73.7 4.446.99 4.276s1.962-7.582-1.648-11.184c-3.297-3.29-6.594-.33-9.56-.987-6.098-1.352-3.627 10.855-3.627 11.84 0 .658.66.658.66 0 .1-.5 0-1.974.99-2.96 1.838-1.833 4.616-3.012 5.275-.987 1.49 4.574 6.28-.52 6.924 0z" class="O"/><path d="M167.907 137.06c.364 0 .66-.078.66-.987s-.295-1.645-.66-1.645-.66.736-.66 1.645.295.987.66.987z" fill="#cec0db"/></g><g transform="translate(135.572 205.794)"><g transform="translate(39.452 16.325)"><use xlink:href="#K" class="B E"/><use xlink:href="#K" id="D" class="B D"/><mask id="T" class="C"><use xlink:href="#A"/></mask><use xlink:href="#L" mask="url(#T)" class="B F"/></g><g transform="translate(9.863 12.407)"><use xlink:href="#K" class="B E"/><mask id="U" class="C"><use xlink:href="#B"/></mask><use xlink:href="#L" mask="url(#U)" class="B E"/></g><g transform="translate(49.315)"><use xlink:href="#K" class="B E"/><mask id="V" class="C"><use xlink:href="#C"/></mask><use xlink:href="#L" mask="url(#V)" class="B F"/></g><g class="B"><path d="M5.318 53.84h4.137v4.682H5.318z" class="N"/><use xlink:href="#M" class="O"/><path d="M22.456 53.84h4.137v4.682h-4.137z" class="N"/><use xlink:href="#M" x="17.137" class="O"/><path d="M12.164 17.957h29.59l8.22-10.12L48 7.183l-14.137 6.53c-10.777.15-18 .584-21.698 1.306s-3.69 1.7 0 2.938z" class="F"/><path d="M12.493 16.65h28.603l7.562-8.815L34.192 6.53c-10.515.73-17.1 1.71-19.726 2.938s-3.293 3.624-1.973 7.183z" class="D"/><g fill="#502e77"><path d="M15.955.293C5.318 1.658 0 7.803 0 18.727 0 35.113 4.432 53.255 4.728 55.01s5.318 1.17 5.318 0S12.4 33.943 12.4 24.287c0-6.437 5.417-13.85 16.25-22.24L15.955.293z"/><path d="M33.684.293c-10.637 1.366-15.955 7.5-15.955 18.435 0 16.386 3.546 34.236 3.84 35.99s5.023 1.756 5.614 0 2.955-20.775 2.955-30.432c0-6.437 5.417-13.85 16.25-22.24L33.684.293z"/></g></g></g><g transform="translate(47.5 178.239)"><g transform="translate(.66 39.958)"><use xlink:href="#N" class="B E"/><use xlink:href="#N" id="G" class="B D"/><mask id="X" class="C"><use xlink:href="#D"/></mask><path fill="#2d1f36" mask="url(#X)" d="M5.278 0h7.917v59.632H5.278z" class="B"/></g><g transform="translate(23.09 5.227)"><g class="B"><use xlink:href="#O" class="E"/><use xlink:href="#O" class="D"/></g><mask id="Y" class="C"><use xlink:href="#E"/></mask><path fill="#2d1f36" mask="url(#Y)" d="M5.278-1.31h7.917v59.632H5.278z" class="B"/></g><g transform="translate(176.145 38.647)"><g class="B"><use xlink:href="#P" class="E"/><use xlink:href="#P" class="D"/></g><mask id="Z" class="C"><use xlink:href="#F"/></mask><path mask="url(#Z)" d="M3.3 0h5.278v59.632H3.3z" class="B F"/></g><g transform="translate(189.999 7.848)"><g class="B"><use xlink:href="#P" class="E"/><use xlink:href="#P" class="D"/></g><mask id="a" class="C"><use xlink:href="#G"/></mask><path mask="url(#a)" d="M3.3 0h5.278v59.632H3.3z" class="B F"/></g><g class="B"><path d="M0 31.44l180.763-.655v9.174L0 40.613z" class="F"/><path d="M24.4 3.916L195.277.312l-14.514 31.454L0 31.44z" class="D"/><path fill="#31213c" d="M180.76 30.79L195.286.306l-.004 8.848-14.527 31.138z"/></g></g><g class="B"><path d="M184.78 187.103h-5.7l-.354 6.783z" class="D"/><path d="M181.137 185.97c.875.654.786 1.666-.267 3.036-1.58 2.055-2.752 2.412-3.997 1.87-.83-.36-1.245-1.445-1.245-3.25l2.752-1.33 2.757-.327z" class="G"/><path d="M174.577 147.042c2.296-1.308 6.926 2.825 8.2 4.58 3.734 5.142 7.216 16.356 5.904 20.936-1.29 4.5-3.585 9.515-6.888 15.048h-2.624c-.06-10.032.16-16.03.656-17.992.745-2.944-3.936-8.832-5.248-11.45s-4.673-8.46 0-11.122z" fill="#502e77"/><path d="M132.055 165.034h45.746c.767 0 1.39.62 1.39 1.382v29.76h-46.285c-.75 0-1.366-.594-1.39-1.34l-.85-28.377c-.023-.763.58-1.4 1.347-1.423l.04-.001z" class="F"/><path d="M132.013 165.95h44.854c.767 0 1.39.62 1.39 1.382v29.76h-46.244c-.767 0-1.39-.62-1.39-1.382v-28.377c0-.764.622-1.382 1.39-1.382z" fill="#1c1224"/><g class="F"><path d="M178.257 197.092l6.24-6.527a2.76 2.76 0 0 0 .765-1.906v-.498c0-.37-.302-.67-.674-.67-.177 0-.347.07-.473.193l-5.858 5.744v3.664z"/><ellipse cx="153.974" cy="179.689" rx="2.802" ry="2.748"/></g><path d="M98.125 36.004L114.32 16.9l.472 29.22z" class="H"/><path d="M114.79 46.28l16.666-9.793L114.32 16.9z" class="L"/><path d="M117.622 38.76l7.157-4.118-7.36-8.235z" class="K P"/><path d="M164.367 97.867l10.002-12.1.29 18.505z" class="H"/><path d="M174.66 104.375l10.293-6.202-10.585-12.405z" class="L"/><path fill="#a6799d" d="M176.41 99.612l4.42-2.608-4.546-5.216z" class="K"/><path d="M143.334 56.844l12.756 7.613v11.36l-12.756-6.888z" class="H"/><path d="M156.1 64.367l13.128-7.523-.093 11.638-13.035 7.335z" class="L"/><path d="M156.38 50.027l12.813 6.856-12.99 7.635-12.847-7.714z" class="H"/><path d="M156.304 52.688l7.217 4.146-7.255 3.99-7.234-4.114z" class="K P"/><path d="M228.444 28.82l7.46 4.395v7.157l-7.46-4.34z" class="H"/><path d="M235.905 33.158l7.625-4.62v7.213l-7.625 4.62z" class="L"/><path fill="#5f405e" d="M236.22 24.204l7.418 4.262-7.808 4.707-7.438-4.226z"/><ellipse cx="236.014" cy="28.651" rx="2.163" ry="1.578" class="C K"/><path d="M265.325 242.227c-.847.586-1.405.9-1.675.97-1.4.318-2.69-.513-2.345.324.67 1.618 1.12 5.74 1.675 7.12 1.172 2.913-1.026 4.532 0 6.798s9.044 9.064 15.41 9.387 19.763-4.532 21.103-6.15c.893-1.08 1.34-2.482 1.34-4.208l-35.507-14.243z" fill="url(#H)" opacity="0"/><path fill="url(#H)" opacity=".02" d="M130.064 196.933L115.78 204.8h52.59l8.765-7.877z"/><path d="M122.97 192.934c1.356.68 2.602.33 4.38-1.328s3.19-3.326 1.947-4.66-3.693-1.072-5.47.586-2.212 4.723-.856 5.403z" fill="#141414"/><path d="M122.86 192.27c1.128 1.004 2.712.316 4.49-1.34s3.19-3.326 1.947-4.66-3.693-1.072-5.47.586-2.093 4.412-.966 5.416z" fill="#1c1127"/><g class="G"><path d="M34.412 251.556c-6.014 3.773-12.327 5.46-18.94 5.062L23.17 268.3c3.34.2 5.678-1.396 8.844-2.1 2.51-.558 6.46-1.587 11.845-3.088l-9.446-11.558z"/><use xlink:href="#Q"/><use xlink:href="#Q" x="106.874" y="31.508"/><path d="M196.846 260.867c-3.812 2.843-7.757 3.768-11.835 2.777l2.958 6.702c4.508 1.096 8.825.22 12.95-2.628l-4.073-6.85zm54.914 11.05c-7.287 4.066-14.815 6.077-22.583 6.033l8.44 11.2c8.6.048 16.806-2.035 24.65-6.25l-10.506-10.974z"/></g></g><path d="M214.085 183.147h.654c1.093 0 1.98.882 1.98 1.97v.492c0 1.36-1.108 2.462-2.474 2.462h-.495" stroke="#3d244e" stroke-width="1.5"/><g class="B"><path d="M194.22 292.56c-3.5 2.065-7.142 3.038-10.927 2.92l4.25 6.035c4.185.13 8.162-.872 11.93-3.01l-5.255-5.946z" class="G"/><path d="M204.517 187.086c-1.838 2.29-2.717 3.766-2.638 4.424.12.988 1.876 1.377 3.348 1.475.98.065 3.052-.216 6.214-.843l1.32-2.054-8.243-3.002z" fill-opacity=".184" opacity=".3" class="C"/><path d="M145.506 305.353c-3.366 2.06-6.63 5.126-9.793 9.2l8.83 1.458c2.647-3.893 6.207-7.302 10.68-10.227l-9.717-.43z" class="G"/><g transform="matrix(0 -1 1 0 191.03175 51.231077)"><path d="M0 2.183h10.885v12.372c-.977 1.456-2.874 2.183-5.7 2.183S.647 16.01 0 14.556V2.183z" class="H"/><ellipse fill="#553854" cx="5.443" cy="2.062" rx="5.443" ry="2.062"/><ellipse cx="5.443" cy="2.062" rx="4.453" ry="1.577" class="K P"/></g><path d="M204.843 182.077h9.896v4.024c0 2.72-2.215 4.923-4.948 4.923s-4.948-2.204-4.948-4.923v-4.024z" fill="#31213c"/><ellipse cx="209.791" cy="182.077" rx="4.948" ry="1.884" class="D"/></g><g stroke="#8f909c" class="I J R"><path d="M212.84 182.958c.367-.212.58-.464.58-.735 0-.574-.96-1.065-2.312-1.262m-1.318.586c-1.275 0-2.3.455-2.3 1.015m2.3 1.015c1.275 0 2.3-.455 2.3-1.015" stroke-width=".5"/><path d="M210.12 180.87c-2.186 0-3.958.606-3.958 1.354" stroke-width=".56"/></g><path d="M62.077 301.307l6.314 9.2m1.33-7.23l4.652 6.564m1.994-7.22l4.653 6.564m1.994-7.22l4.652 6.564" stroke-width="2" class="I J M"/><path d="M83.54 291.53c-9.65 5.295-19.595 7.953-29.84 7.97l11.02 14.302c11.326-.02 22.182-2.777 32.567-8.27L83.54 291.53z" class="B G"/><path d="M62.077 301.307l6.314 9.2m1.33-7.23l4.652 6.564m1.994-7.22l4.653 6.564m1.994-7.22l4.652 6.564" stroke-width="2" class="I J M"/><path d="M237.08 303.773c-4.94 2.678-10.023 4.036-15.25 4.074l5.585 7.13c5.78-.042 11.33-1.452 16.644-4.23l-6.978-6.974z" class="B G"/><path d="M226.082 308.7l3.227 4.595m.68-3.6l2.378 3.282m1.02-3.62l2.378 3.282m1.02-3.6l2.378 3.282" class="I J M"/><g fill="#52d7fd" class="B"><path d="M208.893 183.147c.446 0 1.888-1.66 1.888-4.923s-.36-5.908-.807-5.908-.202 2.645-.202 5.908-1.325 4.923-.88 4.923z"/><path d="M209.834 182.163c.322 0 2.133-1.29 2.133-4.447s2.07-5.4 1.748-5.4-2.622 2.242-2.622 5.4-1.58 4.447-1.26 4.447z"/><path d="M209.39 182.467c.33-.167 1.268-1.734-.188-4.577s-.6-6.08-.92-5.913-2.167 3.556-.712 6.4 1.5 4.258 1.82 4.09z"/><use xlink:href="#R" opacity=".624"/><use xlink:href="#R" x="2.968" opacity=".624"/></g><path d="M110.833 258.966l1.484 1.313v1.64l1.484-.328m1.98-5.58l1.484 1.313v1.64l1.484-.328" class="I J M"/><g class="B"><path d="M233.1 278.688l3.937-.952.922 1.88-3.748.824z" class="C"/><g transform="matrix(-1 0 0 1 291 232)"><g class="Q"><path d="M21.998 32.237h-.064l-.638-3.352-.72.14.612 3.214a.58.58 0 0 0-.576.58v.16h2.896a.74.74 0 0 0-.734-.74H22zM23.18 7.17l.027.072-.055.02a1.84 1.84 0 0 1-.557.086 1.86 1.86 0 0 1-1.856-1.866c0-.886.614-1.628 1.438-1.82-.094-.223-.145-.468-.145-.726a1.86 1.86 0 0 1 1.855-1.866 1.84 1.84 0 0 1 1.144.397A1.86 1.86 0 0 1 26.837.024a1.86 1.86 0 0 1 1.855 1.867 1.86 1.86 0 0 1-.536 1.312c-.658-.447-.555 1.35-1.385 1.457-.67.086-1.116.626-1.6 1.026-1.084.912.204 1.2-2 1.484zm9.94-2.428l-3.516 1.745c.064-.445-1.9-.58-2.017-1.047-.123-.456 1.593-1.2 1.312-1.55 0 0 2.263-.378 4.22.853z"/><path d="M32.864 7.543a1.1 1.1 0 0 1 .04 1.85 1.48 1.48 0 0 1-.819.248c-.32 0-.64-.104-.902-.306-.157-.177-1.786 1.127-1.953.96-.45-.45-.964-.424-1.48-.792.18-.34-.22-3.674-.163-4.063l2.85.634 2.43 1.468z"/></g><path d="M24.916 27.906s-2.44 1.235-3.167 2.716a.54.54 0 0 1-.894.118c-.602-.697-1.283-1.832-.617-2.92 1.352-3.052 6.206-2.682 4.678.086z" fill="#e6e6e6"/><g class="Q"><path d="M6.323 7.8c3.4.1 6.085 2.937 5.995 6.358a6.21 6.21 0 0 1-.534 2.366c-.868-2.265-3.024-3.9-5.586-3.967s-4.8 1.45-5.787 3.665c-.284-.74-.43-1.55-.41-2.392.1-3.42 2.92-6.12 6.32-6.03z"/><path d="M12.03 16.248a6.16 6.16 0 0 0-5.592 3.958C5.51 22.61 6.18 25.24 7.922 26.92a6.11 6.11 0 0 1-2.376-.417c-3.173-1.235-4.75-4.824-3.52-8.015a6.15 6.15 0 0 1 7.968-3.542c.782.304 1.466.753 2.036 1.302z"/></g><path d="M11.55 16.177a.32.32 0 0 1 .413-.289c1.074.33 4.335 1.07 8.77-.394 4.513-1.5 3.104-6.536 2.475-8.252l-.027-.072c-.498-1.33-.145-2.853.94-3.765.475-.4 1.067-.673 1.736-.76.83-.107 1.644.1 2.302.557a3.38 3.38 0 0 1 .742.686 3.34 3.34 0 0 1 .619 1.218 3.4 3.4 0 0 1 .086 1.38 3.36 3.36 0 0 1-.358 1.101 11.24 11.24 0 0 1 1.453 1.229l.26.304a1.48 1.48 0 0 0 .224.213c1.274 1.446 2.194 3.24 2.597 5.27 1.217 6.136-2.754 12.102-8.865 13.302-1.596.314-3.184.266-4.678-.087-4.1-.967-7.518-4.236-8.455-8.633a11.4 11.4 0 0 1-.234-3.01z" fill="#f2f2f2"/><path d="M33.78 14.605c-.403-2.03-1.323-3.824-2.597-5.27a1.48 1.48 0 0 1-.224-.213l-.26-.304a11.24 11.24 0 0 0-1.453-1.229c.18-.34.303-.712.358-1.1a3.4 3.4 0 0 0-.086-1.38 3.34 3.34 0 0 0-.619-1.218c-.212-.266-.463-.497-.742-.686-.658-.447-1.47-.664-2.302-.557-.172.022-.34.057-.5.103a3.39 3.39 0 0 1 .967.454 3.38 3.38 0 0 1 .742.686 3.34 3.34 0 0 1 .619 1.218 3.4 3.4 0 0 1 .086 1.38l-.02.13c-.115.632.098 1.274.578 1.697l.538.505.26.304a1.48 1.48 0 0 0 .224.213c1.274 1.446 2.194 3.24 2.597 5.27 1.217 6.136-2.754 12.102-8.865 13.302a11.14 11.14 0 0 1-1.219.17c1 .083 2.025.032 3.055-.17 6.1-1.2 10.082-7.166 8.865-13.302z" fill="#e6e6e6"/><path d="M24.794 17.496c3.294-2.584 7.478 1.956 4.616 5.017l-.118.122c-1.958 1.97-8.792 3.05-13.625-.903 0 0 5.303-.82 7.18-2.708l1.947-1.527z" class="Q"/><circle fill="#4d4d4d" cx="27.422" cy="5.522" r="1"/></g></g></g></svg>